<svg width="10" height="10" viewBox="0 0 10 10" fill="none" xmlns="http://www.w3.org/2000/svg">
<g clip-path="url(#clip0_2_4183)">
<path d="M6.74554 5.55488C6.82175 5.35123 6.86041 5.13545 6.85965 4.918C6.85965 4.4352 6.66785 3.97217 6.32646 3.63077C5.98506 3.28938 5.52203 3.09759 5.03923 3.09759C4.82446 3.09784 4.61147 3.13648 4.41031 3.21169L4.83755 3.6522C4.9025 3.64181 4.96815 3.63649 5.03392 3.63628C5.3753 3.63557 5.70309 3.76996 5.94572 4.0101C6.18835 4.25025 6.32611 4.57664 6.32891 4.918C6.32869 4.98377 6.32337 5.04943 6.31299 5.11438L6.74554 5.55488Z" fill="#C7D2D6"/>
<path d="M9.16038 4.79328C8.26609 3.14004 6.69777 2.13961 4.96227 2.13961C4.48974 2.14072 4.02039 2.21686 3.57175 2.36517L3.99899 2.79507C4.31367 2.71374 4.63725 2.67185 4.96227 2.67034C6.45629 2.67034 7.81497 3.5036 8.62434 4.90739C8.32743 5.4282 7.93384 5.88755 7.46468 6.26076L7.8415 6.63758C8.38446 6.19955 8.8354 5.65843 9.16834 5.04538L9.23733 4.918L9.16038 4.79328Z" fill="#C7D2D6"/>
<path d="M1.3533 1.67522L2.53684 2.85876C1.78875 3.34043 1.17733 4.00667 0.761531 4.79328L0.692535 4.918L0.761531 5.04538C1.65582 6.69862 3.22414 7.69905 4.95964 7.69905C5.63703 7.69891 6.30562 7.5456 6.91539 7.25058L8.24223 8.57741L8.70662 8.17936L1.80708 1.27982L1.3533 1.67522ZM3.94063 4.26255L5.70532 6.02724C5.50593 6.15066 5.27639 6.21676 5.0419 6.2183C4.87152 6.21831 4.70281 6.18462 4.5455 6.11917C4.38818 6.05373 4.24536 5.95782 4.12525 5.83697C4.00514 5.71613 3.91012 5.57272 3.84564 5.415C3.78117 5.25729 3.74851 5.08838 3.74956 4.918C3.75255 4.68622 3.8186 4.45963 3.94063 4.26255ZM3.55585 3.87776C3.30758 4.22789 3.19121 4.65457 3.22735 5.08226C3.26349 5.50995 3.44981 5.91106 3.75331 6.21456C4.05681 6.51806 4.45791 6.70437 4.8856 6.74051C5.31329 6.77665 5.73998 6.66029 6.0901 6.41202L6.51469 6.83661C6.02317 7.04671 5.49418 7.15503 4.95964 7.15505C3.46562 7.15505 2.10694 6.32179 1.29757 4.918C1.68599 4.23023 2.24539 3.65438 2.92162 3.24619L3.55585 3.87776Z" fill="#C7D2D6"/>
</g>
<defs>
<clipPath id="clip0_2_4183">
<rect x="0.0609436" y="0.141399" width="9.55322" height="9.55322" rx="4.77661" fill="white"/>
</clipPath>
</defs>
</svg>
