<svg width="20" height="21" viewBox="0 0 20 21" fill="none" xmlns="http://www.w3.org/2000/svg">
<path d="M16.3518 5.20868C17.2562 6.70986 17.6427 8.46652 17.4518 10.2087V11.2087C17.4506 12.2615 17.7265 13.2962 18.2518 14.2087M5.45175 9.20868C5.45175 8.14781 5.87318 7.1304 6.62332 6.38025C7.37347 5.63011 8.39089 5.20868 9.45175 5.20868C10.5126 5.20868 11.53 5.63011 12.2802 6.38025C13.0303 7.1304 13.4518 8.14781 13.4518 9.20868V10.2087C13.4518 12.3724 14.1535 14.4777 15.4518 16.2087" stroke="#003465" stroke-width="2" stroke-linecap="round" stroke-linejoin="round"/>
<path d="M9.45175 9.20867V11.2087C9.44856 14.0681 10.321 16.8599 11.9517 19.2087M5.45175 13.2087C5.69645 15.2985 6.30568 17.3293 7.25175 19.2087M2.35175 17.2087C1.677 14.939 1.37309 12.5752 1.45175 10.2087V9.20867C1.44791 7.80253 1.81477 6.42022 2.51535 5.20103C3.21594 3.98184 4.22549 2.96884 5.44229 2.26411C6.65909 1.55938 8.04015 1.18781 9.44629 1.18686C10.8524 1.18591 12.234 1.5556 13.4517 2.25867" stroke="#003465" stroke-width="2" stroke-linecap="round" stroke-linejoin="round"/>
</svg>
